# xmcd CD database file
#
# Track frame offsets:
#	150
#	14292
#	25897
#	37062
#	51880
#	66447
#	77055
#	90232
#	100890
#	116270
#	133410
#	148425
#	159010
#	170522
#	184632
#
# Disc length: 2612 seconds
#
# Revision: 0
# Processed by: cddbd v1.5.2PL0 Copyright (c) Steve Scherf et al.
# Submitted via: CDex 1.51
#
DISCID=c70a320f
DTITLE=Various Artist - 2.UP presents Country Vol 6 - CD2
DYEAR=1991
DGENRE=Country
TTITLE0=Frankie Laine - Don't fence me in
TTITLE1=Frankie Laine - Strange lady in town
TTITLE2=Frankie Laine - Rose rose, I love you
TTITLE3=Frankie Laine - Jezebel
TTITLE4=Frankie Laine - Jealously
TTITLE5=Frankie Laine - Sixteen tons
TTITLE6=Frankie Laine - Wheel of fortune
TTITLE7=Frankie Laine - A woman in love
TTITLE8=Kenny Rogers - My Washington woman
TTITLE9=Kenny Rogers - Something's burning
TTITLE10=Kenny Rogers - Heed the call
TTITLE11=Kenny Rogers - We all got to help each other
TTITLE12=Kenny Rogers - Poem for my little lady
TTITLE13=Kenny Rogers - Loser
TTITLE14=Kenny Rogers - Me and Bobby McGee
EXTD=YEAR: 1991
EXTT0=
EXTT1=
EXTT2=
EXTT3=
EXTT4=
EXTT5=
EXTT6=
EXTT7=
EXTT8=
EXTT9=
EXTT10=
EXTT11=
EXTT12=
EXTT13=
EXTT14=
PLAYORDER=
